<?xml version="1.0" encoding="utf-8"?>
<!-- Generator: Adobe Illustrator 24.0.2, SVG Export Plug-In . SVG Version: 6.00 Build 0)  -->
<svg version="1.0" id="Layer_1" xmlns="http://www.w3.org/2000/svg" xmlns:xlink="http://www.w3.org/1999/xlink" x="0px" y="0px"
	 viewBox="0 0 30 30" style="enable-background:new 0 0 30 30;" xml:space="preserve">
<style type="text/css">
	.st0{fill:#FFFFFF;}
</style>
<g>
	<g>
	</g>
	<g>
	</g>
	<g>
	</g>
	<g>
	</g>
	<g>
	</g>
	<g>
	</g>
	<g>
	</g>
	<g>
	</g>
	<g>
	</g>
	<g>
	</g>
	<g>
	</g>
	<g>
	</g>
	<g>
	</g>
	<g>
	</g>
</g>
<path class="st0" d="M2.13,30h9.69v-6.24h5.81V30h9.99v-1.73l0,0V1.73l0,0V0H2.13v1.73l0,0v26.53 M8.05,20.55H4.76v-4.51h3.29V20.55
	z M8.05,14.05H4.76V9.54h3.29V14.05z M8.05,7.54H4.76V3.03h3.29V7.54z M13.51,20.55h-3.29v-4.51h3.29V20.55z M13.51,14.05h-3.29
	V9.54h3.29V14.05z M13.51,7.54h-3.29V3.03h3.29V7.54z M18.97,20.55h-3.29v-4.51h3.29V20.55z M18.97,14.05h-3.29V9.54h3.29V14.05z
	 M18.97,7.54h-3.29V3.03h3.29V7.54z M24.44,20.55h-3.29v-4.51h3.29V20.55z M24.44,14.05h-3.29V9.54h3.29V14.05z M24.44,7.54h-3.29
	V3.03h3.29V7.54z"/>
</svg>
