<?xml version="1.0" encoding="utf-8"?>
<!-- Generator: Adobe Illustrator 24.0.2, SVG Export Plug-In . SVG Version: 6.00 Build 0)  -->
<svg version="1.0" id="Layer_1" xmlns="http://www.w3.org/2000/svg" xmlns:xlink="http://www.w3.org/1999/xlink" x="0px" y="0px"
	 viewBox="0 0 30 30" style="enable-background:new 0 0 30 30;" xml:space="preserve">
<style type="text/css">
	.st0{fill:#FFFFFF;}
</style>
<path class="st0" d="M27.4,29.5H17.05v-5.84h-4.44v5.84H2.54V0.42H27.4V29.5z M18.05,28.5h8.35V1.42H3.54V28.5h8.07v-5.84h6.44V28.5
	z M24.42,20.65h-4.08v-5.22h4.08V20.65z M21.34,19.65h2.08v-3.22h-2.08V19.65z M19.31,20.65h-4.08v-5.22h4.08V20.65z M16.23,19.65
	h2.08v-3.22h-2.08V19.65z M14.2,20.65h-4.08v-5.22h4.08V20.65z M11.11,19.65h2.08v-3.22h-2.08V19.65z M9.08,20.65H5v-5.22h4.08
	V20.65z M6,19.65h2.08v-3.22H6V19.65z M24.42,14.57h-4.08V9.35h4.08V14.57z M21.34,13.57h2.08v-3.22h-2.08V13.57z M19.31,14.57
	h-4.08V9.35h4.08V14.57z M16.23,13.57h2.08v-3.22h-2.08V13.57z M14.2,14.57h-4.08V9.35h4.08V14.57z M11.11,13.57h2.08v-3.22h-2.08
	V13.57z M9.08,14.57H5V9.35h4.08V14.57z M6,13.57h2.08v-3.22H6V13.57z M24.42,8.48h-4.08V3.26h4.08V8.48z M21.34,7.48h2.08V4.26
	h-2.08V7.48z M19.31,8.48h-4.08V3.26h4.08V8.48z M16.23,7.48h2.08V4.26h-2.08V7.48z M14.2,8.48h-4.08V3.26h4.08V8.48z M11.11,7.48
	h2.08V4.26h-2.08V7.48z M9.08,8.48H5V3.26h4.08V8.48z M6,7.48h2.08V4.26H6V7.48z"/>
</svg>
