<?xml version="1.0" encoding="utf-8"?>
<!-- Generator: Adobe Illustrator 24.0.2, SVG Export Plug-In . SVG Version: 6.00 Build 0)  -->
<svg version="1.0" id="Layer_1" xmlns="http://www.w3.org/2000/svg" xmlns:xlink="http://www.w3.org/1999/xlink" x="0px" y="0px"
	 viewBox="0 0 30 30" style="enable-background:new 0 0 30 30;" xml:space="preserve">
<style type="text/css">
	.st0{fill:#FFFFFF;}
</style>
<g>
	<g>
		<path class="st0" d="M3.22,26.32l-0.35-0.43c-2.55-3.16-2.29-7.72,0.59-10.6c0.14-0.14,3.41-3.49,6.97-10.01l1.35-2.48l0.58,1.45
			c0.56,1.38,1.15,2.82,1.49,5.4v0c0.28,2.09,0.24,4.14-0.11,6.08l-0.03,0.15L3.22,26.32z M11.64,5.14L11.3,5.76
			C7.68,12.4,4.31,15.85,4.17,15.99c-2.39,2.39-2.71,6.08-0.85,8.82l9.46-9.41c0.31-1.79,0.34-3.68,0.08-5.62l0,0
			C12.57,7.63,12.13,6.36,11.64,5.14z"/>
		<path class="st0" d="M9.09,28.88c-1.75,0-3.5-0.58-4.96-1.74l-0.44-0.35l10.55-10.5l0.16-0.03c1.91-0.34,3.92-0.37,5.97-0.09
			c2.58,0.34,3.94,0.89,5.38,1.48l1.47,0.59l-2.48,1.35c-6.48,3.53-9.88,6.82-10.02,6.96C13.17,28.09,11.13,28.88,9.09,28.88z
			 M5.2,26.69c2.74,1.85,6.43,1.52,8.81-0.85c0.15-0.15,3.64-3.53,10.24-7.13l0.62-0.34c-1.21-0.48-2.48-0.93-4.64-1.21
			c-1.31-0.18-3.31-0.3-5.51,0.06L5.2,26.69z"/>
		<path class="st0" d="M2.17,29.71l-1.88-1.88l3.01-3l0.35,0.43c0.32,0.4,0.7,0.78,1.09,1.09l0.44,0.35L2.17,29.71z M1.71,27.83
			l0.46,0.47l1.53-1.52c-0.16-0.15-0.32-0.3-0.47-0.46L1.71,27.83z"/>
		<path class="st0" d="M23.21,16.05l-0.27-0.07c-2.62-0.65-5.33-0.82-7.85-0.5l-0.64,0.08l0.08-0.64c0.17-1.29,0.21-2.64,0.11-3.99
			L14.55,9.6l2.6,2.6l0.46-0.46l-3.29-3.28L14.29,8.3c-0.08-0.44-0.18-0.85-0.27-1.21l-0.07-0.3l0.23-0.2
			c1.26-1.1,2.58-2.13,3.82-2.96l0.34-0.23l3.8,3.8l0.47-0.46l-3.7-3.7l0.55-0.33c1-0.59,2.04-1.11,2.95-1.46
			c1.74-0.67,4.23-0.81,5.83-0.72l1.19,0.07l0.07,1.19c0.08,1.38-0.02,3.59-0.53,5.27l-0.24,0.79l-2.9-2.9l-0.47,0.46l3.06,3.05
			l-0.15,0.32c-0.71,1.49-1.83,3.28-3,4.8l-0.35,0.45l-4.1-4.09l-0.47,0.47l4.15,4.14l-0.29,0.35c-0.2,0.24-0.76,0.9-0.81,0.95
			L23.21,16.05z M17.63,14.32c1.73,0,3.51,0.21,5.25,0.62c0.08-0.1,0.18-0.21,0.28-0.33l-4.21-4.21l1.88-1.88l3.99,3.99
			c0.92-1.25,1.78-2.64,2.39-3.85l-3.26-3.26l1.88-1.88l2.4,2.39c0.27-1.34,0.34-2.94,0.28-4.09l-0.02-0.29l-0.29-0.02
			c-1.62-0.09-3.92,0.08-5.41,0.66c-0.69,0.27-1.47,0.64-2.24,1.07l3.49,3.49l-1.88,1.88l-3.92-3.92c-1.03,0.71-2.11,1.55-3.15,2.45
			c0.06,0.25,0.12,0.53,0.18,0.82l3.78,3.77l-1.88,1.88l-1.46-1.46c0.01,0.77-0.03,1.52-0.1,2.27
			C16.26,14.36,16.94,14.32,17.63,14.32z"/>
	</g>
</g>
</svg>
