<?xml version="1.0" encoding="utf-8"?>
<!-- Generator: Adobe Illustrator 24.0.2, SVG Export Plug-In . SVG Version: 6.00 Build 0)  -->
<svg version="1.0" id="Layer_1" xmlns="http://www.w3.org/2000/svg" xmlns:xlink="http://www.w3.org/1999/xlink" x="0px" y="0px"
	 viewBox="0 0 30 30" style="enable-background:new 0 0 30 30;" xml:space="preserve">
<style type="text/css">
	.st0{fill:#FFFFFF;}
</style>
<g>
	<g>
	</g>
	<g>
	</g>
	<g>
	</g>
	<g>
	</g>
	<g>
	</g>
	<g>
	</g>
	<g>
	</g>
	<g>
	</g>
	<g>
	</g>
	<g>
	</g>
	<g>
	</g>
	<g>
	</g>
	<g>
	</g>
	<g>
	</g>
</g>
<g>
	<g>
		<path class="st0" d="M13.66,9.2c-0.38-2.87-1.06-4.31-1.69-5.89L11.11,4.9c-3.73,6.84-7.2,10.35-7.23,10.39
			c-2.8,2.8-2.97,7.2-0.56,10.19l10.23-10.19C13.98,12.95,13.88,10.79,13.66,9.2L13.66,9.2z"/>
		<path class="st0" d="M14.82,16.42L4.52,26.68c3.01,2.4,7.41,2.2,10.18-0.57c0.04-0.03,3.54-3.5,10.39-7.23l1.59-0.86
			c-1.63-0.65-3.01-1.3-5.89-1.69C19.22,16.11,17.11,16.02,14.82,16.42z"/>
		<path class="st0" d="M29.18,6.31c0.48-1.56,0.6-3.74,0.52-5.23h0l-0.04-0.76l-0.76-0.04c-1.7-0.09-4.14,0.08-5.77,0.71
			c-0.99,0.39-2.04,0.93-2.95,1.46l-1.47,0.93c-1.33,0.89-2.67,1.95-3.87,3c0.1,0.38,0.19,0.81,0.28,1.27l0.36,2.76
			c0.08,1.22,0.08,2.65-0.12,4.2c2.74-0.36,5.58-0.14,8.23,0.52c0.05-0.05,0.6-0.7,0.8-0.94l1.06-1.34
			c1.05-1.37,2.22-3.17,3.02-4.84L29.18,6.31z"/>
	</g>
</g>
</svg>
