<?xml version="1.0" encoding="utf-8"?>
<!-- Generator: Adobe Illustrator 24.0.2, SVG Export Plug-In . SVG Version: 6.00 Build 0)  -->
<svg version="1.0" id="Layer_1" xmlns="http://www.w3.org/2000/svg" xmlns:xlink="http://www.w3.org/1999/xlink" x="0px" y="0px"
	 viewBox="0 0 30 30" style="enable-background:new 0 0 30 30;" xml:space="preserve">
<style type="text/css">
	.st0{fill:#FFFFFF;}
</style>
<g>
	<g>
		<g id="loop_x5F_alt2_1_">
			<g>
				<path class="st0" d="M21.7,13.1l3.64-4.7L29,13.1h-2.32v1.07c0,2.01-1.63,3.63-3.63,3.63H6.53c-2.01,0-3.63-1.63-3.63-3.63V13.1
					h2.69v1.36c-0.12,0.67,0.43,1.21,1.1,1.33h16.27c0.67-0.12,1.21-0.66,1.05-1.33V13.1H21.7z"/>
				<path class="st0" d="M7.92,6.38l-3.64,4.45L0.62,6.38h2.27V4.77c0.15-2,1.78-3.63,3.78-3.77h16.27c2,0.14,3.63,1.77,3.74,3.77
					v1.61h-2.69V4.77c0.16-0.67-0.38-1.21-1.05-1.08H6.68C6.01,3.56,5.47,4.1,5.58,4.77v1.61H7.92z"/>
			</g>
		</g>
	</g>
	<g>
	</g>
	<g>
	</g>
	<g>
	</g>
	<g>
	</g>
	<g>
	</g>
	<g>
	</g>
	<g>
	</g>
	<g>
	</g>
	<g>
	</g>
	<g>
	</g>
	<g>
	</g>
	<g>
	</g>
	<g>
	</g>
	<g>
	</g>
	<g>
	</g>
</g>
</svg>
